<mxfile host="Electron" modified="2024-07-10T19:26:22.043Z" agent="Mozilla/5.0 (Windows NT 10.0; Win64; x64) AppleWebKit/537.36 (KHTML, like Gecko) draw.io/24.6.4 Chrome/124.0.6367.207 Electron/30.0.6 Safari/537.36" etag="hnDylzBp695YmMsRZMPd" version="24.6.4" type="device">
  <diagram name="Seite-1" id="kecNFz8jEFbkZg8G_8fI">
    <mxGraphModel dx="819" dy="478" grid="1" gridSize="10" guides="1" tooltips="1" connect="1" arrows="1" fold="1" page="1" pageScale="1" pageWidth="827" pageHeight="1169" math="0" shadow="0">
      <root>
        <mxCell id="0" />
        <mxCell id="1" parent="0" />
        <mxCell id="28otgImFcH82K_2K7Ol3-2" style="edgeStyle=orthogonalEdgeStyle;rounded=0;orthogonalLoop=1;jettySize=auto;html=1;" edge="1" parent="1" source="DVOIMGMZKbDrHnBOpkta-1" target="28otgImFcH82K_2K7Ol3-1">
          <mxGeometry relative="1" as="geometry" />
        </mxCell>
        <mxCell id="DVOIMGMZKbDrHnBOpkta-1" value="Start" style="rounded=1;whiteSpace=wrap;html=1;fillColor=#d5e8d4;strokeColor=#82b366;" parent="1" vertex="1">
          <mxGeometry x="80" y="150" width="120" height="60" as="geometry" />
        </mxCell>
        <mxCell id="DVOIMGMZKbDrHnBOpkta-5" style="edgeStyle=orthogonalEdgeStyle;rounded=0;orthogonalLoop=1;jettySize=auto;html=1;" parent="1" source="DVOIMGMZKbDrHnBOpkta-2" target="DVOIMGMZKbDrHnBOpkta-4" edge="1">
          <mxGeometry relative="1" as="geometry" />
        </mxCell>
        <mxCell id="DVOIMGMZKbDrHnBOpkta-2" value="Bentuzer drück&amp;nbsp;&lt;div&gt;auf &quot;=&quot;&lt;/div&gt;" style="shape=parallelogram;perimeter=parallelogramPerimeter;whiteSpace=wrap;html=1;fixedSize=1;fillColor=#dae8fc;strokeColor=#6c8ebf;" parent="1" vertex="1">
          <mxGeometry x="80" y="360" width="120" height="60" as="geometry" />
        </mxCell>
        <mxCell id="DVOIMGMZKbDrHnBOpkta-16" style="edgeStyle=orthogonalEdgeStyle;rounded=0;orthogonalLoop=1;jettySize=auto;html=1;" parent="1" source="DVOIMGMZKbDrHnBOpkta-4" target="DVOIMGMZKbDrHnBOpkta-13" edge="1">
          <mxGeometry relative="1" as="geometry" />
        </mxCell>
        <mxCell id="DVOIMGMZKbDrHnBOpkta-4" value="Rechnung wird an&lt;div&gt;den Flask-Server&lt;/div&gt;&lt;div&gt;geschickt&lt;/div&gt;" style="rounded=0;whiteSpace=wrap;html=1;fillColor=#fff2cc;strokeColor=#d6b656;" parent="1" vertex="1">
          <mxGeometry x="80" y="460" width="120" height="60" as="geometry" />
        </mxCell>
        <mxCell id="DVOIMGMZKbDrHnBOpkta-9" style="edgeStyle=orthogonalEdgeStyle;rounded=0;orthogonalLoop=1;jettySize=auto;html=1;" parent="1" source="DVOIMGMZKbDrHnBOpkta-6" target="DVOIMGMZKbDrHnBOpkta-8" edge="1">
          <mxGeometry relative="1" as="geometry" />
        </mxCell>
        <mxCell id="DVOIMGMZKbDrHnBOpkta-6" value="Rechnung wird im Server berechnet" style="rounded=0;whiteSpace=wrap;html=1;fillColor=#fff2cc;strokeColor=#d6b656;" parent="1" vertex="1">
          <mxGeometry x="80" y="690" width="120" height="60" as="geometry" />
        </mxCell>
        <mxCell id="DVOIMGMZKbDrHnBOpkta-11" style="edgeStyle=orthogonalEdgeStyle;rounded=0;orthogonalLoop=1;jettySize=auto;html=1;" parent="1" source="DVOIMGMZKbDrHnBOpkta-8" target="28otgImFcH82K_2K7Ol3-4" edge="1">
          <mxGeometry relative="1" as="geometry">
            <mxPoint x="140" y="880" as="targetPoint" />
          </mxGeometry>
        </mxCell>
        <mxCell id="DVOIMGMZKbDrHnBOpkta-8" value="Ergebnis wird&amp;nbsp;&lt;div&gt;zurück gegeben&lt;/div&gt;" style="rounded=0;whiteSpace=wrap;html=1;fillColor=#fff2cc;strokeColor=#d6b656;" parent="1" vertex="1">
          <mxGeometry x="80" y="790" width="120" height="60" as="geometry" />
        </mxCell>
        <mxCell id="DVOIMGMZKbDrHnBOpkta-12" value="Ende" style="rounded=1;whiteSpace=wrap;html=1;fillColor=#d5e8d4;strokeColor=#82b366;" parent="1" vertex="1">
          <mxGeometry x="80" y="1000" width="120" height="60" as="geometry" />
        </mxCell>
        <mxCell id="DVOIMGMZKbDrHnBOpkta-14" style="edgeStyle=orthogonalEdgeStyle;rounded=0;orthogonalLoop=1;jettySize=auto;html=1;entryX=0.5;entryY=0;entryDx=0;entryDy=0;" parent="1" source="DVOIMGMZKbDrHnBOpkta-13" target="DVOIMGMZKbDrHnBOpkta-6" edge="1">
          <mxGeometry relative="1" as="geometry" />
        </mxCell>
        <mxCell id="DVOIMGMZKbDrHnBOpkta-15" value="nein" style="edgeLabel;html=1;align=center;verticalAlign=middle;resizable=0;points=[];" parent="DVOIMGMZKbDrHnBOpkta-14" vertex="1" connectable="0">
          <mxGeometry x="-0.3133" relative="1" as="geometry">
            <mxPoint as="offset" />
          </mxGeometry>
        </mxCell>
        <mxCell id="DVOIMGMZKbDrHnBOpkta-18" style="edgeStyle=orthogonalEdgeStyle;rounded=0;orthogonalLoop=1;jettySize=auto;html=1;" parent="1" source="DVOIMGMZKbDrHnBOpkta-13" target="DVOIMGMZKbDrHnBOpkta-17" edge="1">
          <mxGeometry relative="1" as="geometry" />
        </mxCell>
        <mxCell id="DVOIMGMZKbDrHnBOpkta-19" value="ja" style="edgeLabel;html=1;align=center;verticalAlign=middle;resizable=0;points=[];" parent="DVOIMGMZKbDrHnBOpkta-18" vertex="1" connectable="0">
          <mxGeometry x="-0.3398" y="-1" relative="1" as="geometry">
            <mxPoint as="offset" />
          </mxGeometry>
        </mxCell>
        <mxCell id="DVOIMGMZKbDrHnBOpkta-13" value="Gibt es eine&amp;nbsp;&lt;div&gt;Zero Division?&lt;/div&gt;" style="rhombus;whiteSpace=wrap;html=1;fillColor=#f8cecc;strokeColor=#b85450;" parent="1" vertex="1">
          <mxGeometry x="80" y="540" width="120" height="110" as="geometry" />
        </mxCell>
        <mxCell id="28otgImFcH82K_2K7Ol3-6" style="edgeStyle=orthogonalEdgeStyle;rounded=0;orthogonalLoop=1;jettySize=auto;html=1;entryX=1;entryY=0.5;entryDx=0;entryDy=0;" edge="1" parent="1" source="DVOIMGMZKbDrHnBOpkta-17" target="28otgImFcH82K_2K7Ol3-4">
          <mxGeometry relative="1" as="geometry">
            <Array as="points">
              <mxPoint x="310" y="920" />
            </Array>
          </mxGeometry>
        </mxCell>
        <mxCell id="DVOIMGMZKbDrHnBOpkta-17" value="Zero Division Fehler&lt;div&gt;wird zurück gegeben&lt;/div&gt;" style="rounded=0;whiteSpace=wrap;html=1;fillColor=#fff2cc;strokeColor=#d6b656;" parent="1" vertex="1">
          <mxGeometry x="250" y="565" width="120" height="60" as="geometry" />
        </mxCell>
        <mxCell id="28otgImFcH82K_2K7Ol3-3" style="edgeStyle=orthogonalEdgeStyle;rounded=0;orthogonalLoop=1;jettySize=auto;html=1;" edge="1" parent="1" source="28otgImFcH82K_2K7Ol3-1" target="DVOIMGMZKbDrHnBOpkta-2">
          <mxGeometry relative="1" as="geometry" />
        </mxCell>
        <mxCell id="28otgImFcH82K_2K7Ol3-1" value="Benutzer gibt&lt;div&gt;2 Zahlen und Operator ein&lt;/div&gt;" style="shape=parallelogram;perimeter=parallelogramPerimeter;whiteSpace=wrap;html=1;fixedSize=1;fillColor=#dae8fc;strokeColor=#6c8ebf;" vertex="1" parent="1">
          <mxGeometry x="80" y="260" width="120" height="60" as="geometry" />
        </mxCell>
        <mxCell id="28otgImFcH82K_2K7Ol3-5" style="edgeStyle=orthogonalEdgeStyle;rounded=0;orthogonalLoop=1;jettySize=auto;html=1;" edge="1" parent="1" source="28otgImFcH82K_2K7Ol3-4" target="DVOIMGMZKbDrHnBOpkta-12">
          <mxGeometry relative="1" as="geometry" />
        </mxCell>
        <mxCell id="28otgImFcH82K_2K7Ol3-4" value="Ergebnis wird im&lt;div&gt;Taschenrechner&lt;/div&gt;&lt;div&gt;angezeigt&lt;/div&gt;" style="shape=parallelogram;perimeter=parallelogramPerimeter;whiteSpace=wrap;html=1;fixedSize=1;fillColor=#dae8fc;strokeColor=#6c8ebf;" vertex="1" parent="1">
          <mxGeometry x="80" y="890" width="120" height="60" as="geometry" />
        </mxCell>
      </root>
    </mxGraphModel>
  </diagram>
</mxfile>
